<mxfile host="app.diagrams.net" modified="2024-05-13T14:33:40.419Z" agent="Mozilla/5.0 (Windows NT 10.0; Win64; x64) AppleWebKit/537.36 (KHTML, like Gecko) Chrome/124.0.0.0 Safari/537.36 Edg/124.0.0.0" etag="ZgTbM3d7KMOUilaZssq5" version="24.3.1" type="device">
  <diagram name="Page-1" id="wv6yhF3MjOjvU5xTvcpe">
    <mxGraphModel dx="1386" dy="797" grid="1" gridSize="10" guides="1" tooltips="1" connect="1" arrows="1" fold="1" page="1" pageScale="1" pageWidth="850" pageHeight="1100" math="0" shadow="0">
      <root>
        <mxCell id="0" />
        <mxCell id="1" parent="0" />
        <mxCell id="q-qjTdNtsipeX_nzLkv_-1" value="Hospital" style="shape=umlActor;verticalLabelPosition=bottom;verticalAlign=top;html=1;outlineConnect=0;" parent="1" vertex="1">
          <mxGeometry x="300" y="220" width="80" height="130" as="geometry" />
        </mxCell>
        <mxCell id="q-qjTdNtsipeX_nzLkv_-2" value="" style="endArrow=classic;html=1;rounded=0;" parent="1" target="q-qjTdNtsipeX_nzLkv_-3" edge="1">
          <mxGeometry width="50" height="50" relative="1" as="geometry">
            <mxPoint x="380" y="240" as="sourcePoint" />
            <mxPoint x="480" y="210" as="targetPoint" />
          </mxGeometry>
        </mxCell>
        <mxCell id="q-qjTdNtsipeX_nzLkv_-3" value="&lt;h2&gt;View Appointment&lt;/h2&gt;" style="ellipse;whiteSpace=wrap;html=1;" parent="1" vertex="1">
          <mxGeometry x="490" y="150" width="130" height="80" as="geometry" />
        </mxCell>
        <mxCell id="q-qjTdNtsipeX_nzLkv_-4" value="" style="endArrow=classic;html=1;rounded=0;" parent="1" edge="1">
          <mxGeometry width="50" height="50" relative="1" as="geometry">
            <mxPoint x="380" y="290" as="sourcePoint" />
            <mxPoint x="490" y="290" as="targetPoint" />
          </mxGeometry>
        </mxCell>
        <mxCell id="q-qjTdNtsipeX_nzLkv_-5" value="&lt;h2&gt;Add new consultation Hour&lt;/h2&gt;" style="ellipse;whiteSpace=wrap;html=1;" parent="1" vertex="1">
          <mxGeometry x="490" y="245" width="140" height="80" as="geometry" />
        </mxCell>
        <mxCell id="q-qjTdNtsipeX_nzLkv_-7" value="" style="endArrow=classic;html=1;rounded=0;entryX=0.057;entryY=0.31;entryDx=0;entryDy=0;entryPerimeter=0;" parent="1" target="q-qjTdNtsipeX_nzLkv_-8" edge="1">
          <mxGeometry width="50" height="50" relative="1" as="geometry">
            <mxPoint x="380" y="330" as="sourcePoint" />
            <mxPoint x="490" y="370" as="targetPoint" />
          </mxGeometry>
        </mxCell>
        <mxCell id="q-qjTdNtsipeX_nzLkv_-8" value="&lt;h2&gt;Consultation List&lt;/h2&gt;" style="ellipse;whiteSpace=wrap;html=1;" parent="1" vertex="1">
          <mxGeometry x="490" y="360" width="140" height="80" as="geometry" />
        </mxCell>
        <mxCell id="q-qjTdNtsipeX_nzLkv_-9" value="&lt;h1&gt;Actor as Hospital&lt;/h1&gt;" style="text;html=1;align=center;verticalAlign=middle;whiteSpace=wrap;rounded=0;" parent="1" vertex="1">
          <mxGeometry x="230" y="400" width="220" height="30" as="geometry" />
        </mxCell>
        <mxCell id="5yBoFKA9WP60ym6ttIHX-1" value="Drawn By&lt;div&gt;Joy Kumar Ghosh - 2211424 6 42&lt;/div&gt;" style="text;html=1;align=center;verticalAlign=middle;whiteSpace=wrap;rounded=0;" vertex="1" parent="1">
          <mxGeometry x="90" y="460" width="220" height="30" as="geometry" />
        </mxCell>
      </root>
    </mxGraphModel>
  </diagram>
</mxfile>
